<svg width="34" height="34" viewBox="0 0 34 34" fill="none" xmlns="http://www.w3.org/2000/svg">
<g clip-path="url(#clip0_242_125475)">
<path d="M6 16.5H16V19.5H18V16.5H28V19.5H30V14.5H18V12.5H22C22 11.2305 22 3.503 22 2.5C21.0633 2.5 18.9397 2.5 18 2.5V5.5C17.5549 5.5 16.4451 5.5 16 5.5C16 4.4508 16 3.5492 16 2.5H12V12.5H16V14.5H4V19.5H6V16.5Z" fill="white"/>
<path d="M6 24.5C5.55487 24.5 4.44513 24.5 4 24.5C4 23.4508 4 22.5492 4 21.5H0V31.5H10C10 30.2305 10 22.503 10 21.5C9.06333 21.5 6.93967 21.5 6 21.5V24.5Z" fill="white"/>
<path d="M18 24.5C17.5549 24.5 16.4451 24.5 16 24.5C16 23.4508 16 22.5492 16 21.5H12V31.5H22C22 30.2305 22 22.503 22 21.5C21.0633 21.5 18.9397 21.5 18 21.5V24.5Z" fill="white"/>
<path d="M30 21.5V24.5C29.5549 24.5 28.4451 24.5 28 24.5C28 23.4508 28 22.5492 28 21.5H24V31.5H34C34 30.2305 34 22.503 34 21.5C33.0633 21.5 30.9397 21.5 30 21.5Z" fill="white"/>
</g>
<defs>
<clipPath id="clip0_242_125475">
<rect width="34" height="34" fill="white"/>
</clipPath>
</defs>
</svg>
