<svg width="34" height="34" viewBox="0 0 34 34" fill="none" xmlns="http://www.w3.org/2000/svg">
<g clip-path="url(#clip0_242_125482)">
<path d="M33.7061 30.2484L31.6511 28.2061C31.2609 27.8182 30.6302 27.8202 30.2425 28.2104C29.8547 28.6006 29.8566 29.2313 30.2468 29.6191L30.5789 29.9492H4.05079V3.41992L4.38242 3.75201C4.77109 4.14135 5.40182 4.14175 5.79109 3.75321C6.18037 3.36447 6.1809 2.73381 5.79222 2.34453L3.74332 0.292314C3.35279 -0.0989517 2.71981 -0.0964282 2.33193 0.293841L0.289602 2.34878C-0.0982102 2.73905 -0.0962844 3.36971 0.293919 3.75753C0.682927 4.14408 1.31359 4.14454 1.70259 3.75321L2.0586 3.39501V30.9453C2.0586 31.4954 2.50458 31.9414 3.05469 31.9414H30.6061L30.248 32.299C29.8587 32.6877 29.8582 33.3184 30.2469 33.7077C30.6345 34.0959 31.265 34.0987 31.6555 33.7089L33.7077 31.66C34.0979 31.2702 34.0973 30.6371 33.7061 30.2484Z" fill="white"/>
<path d="M6.02398 14.6691L6.00977 14.679V27.9902H12.0308V14.7496C11.7132 14.6359 9.04945 12.5599 6.02398 14.6691Z" fill="white"/>
<path d="M13.957 16.1926V27.9901H19.9774V18.9709C19.7783 18.909 18.747 18.8298 17.1334 18.1034C15.9934 17.5901 14.9596 16.9391 13.957 16.1926Z" fill="white"/>
<path d="M25.2574 18.1028C23.5168 19.036 22.0841 19.0107 21.9033 19.0602V27.9903H27.9908V15.8442C27.2023 16.7665 26.3397 17.5226 25.2574 18.1028Z" fill="white"/>
<path d="M6.04297 12.4014C7.92359 11.5288 10.8647 11.1443 14.4002 14.0509C16.7535 15.9851 19.727 17.6303 22.7123 16.9728C25.5943 16.3399 27.1734 13.869 27.8574 12.4532C28.5514 11.0175 29.5063 10.1987 30.695 10.0187C31.2388 9.93638 31.6127 9.42838 31.5304 8.88451C31.448 8.34064 30.94 7.96611 30.3961 8.04912C28.5454 8.32935 27.0473 9.55255 26.0645 11.5859C25.5365 12.677 24.3445 14.5742 22.2846 15.0271C20.4212 15.4368 18.194 14.5901 15.6652 12.5116C12.1976 9.66113 8.81038 9.25731 6.04297 10.2558V12.4014Z" fill="white"/>
</g>
<defs>
<clipPath id="clip0_242_125482">
<rect width="34" height="34" fill="white"/>
</clipPath>
</defs>
</svg>
