<svg xmlns="http://www.w3.org/2000/svg" width="564" height="368" viewBox="0 0 564 368" fill="none"><g clip-path="url(#clip0_242_22168)"><path d="M382.483 290.364L406.966 322.914C409.803 326.685 405.887 331.802 401.504 330.05L336.019 303.325L382.483 290.364Z" fill="url(#paint0_linear_242_22168)"></path><path d="M496.066 132.097L502.839 250.58C503.877 268.721 490.645 284.546 472.61 286.738L336.018 303.327C314.832 305.901 296.429 288.778 297.471 267.457L304.41 125.383C305.343 106.274 321.667 91.5889 340.766 92.678L463.646 99.679C481.119 100.673 495.068 114.618 496.066 132.097Z" fill="url(#paint1_linear_242_22168)"></path><g opacity="0.05"><path opacity="0.0625" d="M396.446 361.249C483.353 361.249 553.805 357.454 553.805 352.774C553.805 348.093 483.353 344.298 396.446 344.298C309.539 344.298 239.087 348.093 239.087 352.774C239.087 357.454 309.539 361.249 396.446 361.249Z" fill="#573D85"></path><path opacity="0.125" d="M396.446 360.702C477.724 360.702 543.612 357.153 543.612 352.774C543.612 348.396 477.724 344.847 396.446 344.847C315.168 344.847 249.279 348.396 249.279 352.774C249.279 357.153 315.168 360.702 396.446 360.702Z" fill="#573D85"></path><path opacity="0.1875" d="M396.446 360.154C472.095 360.154 533.42 356.85 533.42 352.774C533.42 348.699 472.095 345.395 396.446 345.395C320.797 345.395 259.472 348.699 259.472 352.774C259.472 356.85 320.797 360.154 396.446 360.154Z" fill="#573D85"></path><path opacity="0.25" d="M396.446 359.603C466.466 359.603 523.228 356.545 523.228 352.774C523.228 349.003 466.466 345.946 396.446 345.946C326.426 345.946 269.664 349.003 269.664 352.774C269.664 356.545 326.426 359.603 396.446 359.603Z" fill="#573D85"></path><path opacity="0.3125" d="M396.445 359.055C460.834 359.055 513.032 356.243 513.032 352.774C513.032 349.305 460.834 346.493 396.445 346.493C332.057 346.493 279.859 349.305 279.859 352.774C279.859 356.243 332.057 359.055 396.445 359.055Z" fill="#573D85"></path><path opacity="0.375" d="M396.446 358.507C455.205 358.507 502.839 355.94 502.839 352.774C502.839 349.608 455.205 347.041 396.446 347.041C337.686 347.041 290.052 349.608 290.052 352.774C290.052 355.94 337.686 358.507 396.446 358.507Z" fill="#573D85"></path><path opacity="0.4375" d="M396.446 357.955C449.576 357.955 492.647 355.636 492.647 352.774C492.647 349.912 449.576 347.593 396.446 347.593C343.315 347.593 300.244 349.912 300.244 352.774C300.244 355.636 343.315 357.955 396.446 357.955Z" fill="#573D85"></path><path opacity="0.5" d="M396.446 357.407C443.947 357.407 482.455 355.333 482.455 352.774C482.455 350.215 443.947 348.14 396.446 348.14C348.944 348.14 310.437 350.215 310.437 352.774C310.437 355.333 348.944 357.407 396.446 357.407Z" fill="#573D85"></path><path opacity="0.5625" d="M396.446 356.859C438.318 356.859 472.263 355.03 472.263 352.774C472.263 350.517 438.318 348.688 396.446 348.688C354.573 348.688 320.629 350.517 320.629 352.774C320.629 355.03 354.573 356.859 396.446 356.859Z" fill="#573D85"></path><path opacity="0.625" d="M396.445 356.308C432.687 356.308 462.066 354.726 462.066 352.774C462.066 350.822 432.687 349.239 396.445 349.239C360.204 349.239 330.824 350.822 330.824 352.774C330.824 354.726 360.204 356.308 396.445 356.308Z" fill="#573D85"></path><path opacity="0.6875" d="M396.445 355.76C427.058 355.76 451.874 354.423 451.874 352.774C451.874 351.124 427.058 349.787 396.445 349.787C365.833 349.787 341.017 351.124 341.017 352.774C341.017 354.423 365.833 355.76 396.445 355.76Z" fill="#573D85"></path><path opacity="0.75" d="M441.682 352.774C441.682 354.12 421.429 355.212 396.445 355.212C371.462 355.212 351.209 354.12 351.209 352.774C351.209 351.427 371.462 350.335 396.445 350.335C421.429 350.335 441.682 351.427 441.682 352.774Z" fill="#573D85"></path><path opacity="0.8125" d="M431.49 352.774C431.49 353.816 415.799 354.661 396.446 354.661C377.092 354.661 361.401 353.816 361.401 352.774C361.401 351.732 377.092 350.887 396.446 350.887C415.799 350.887 431.49 351.732 431.49 352.774Z" fill="#573D85"></path><path opacity="0.875" d="M421.297 352.774C421.297 353.515 410.172 354.113 396.449 354.113C382.726 354.113 371.601 353.515 371.601 352.774C371.601 352.033 382.726 351.435 396.449 351.435C410.172 351.435 421.297 352.037 421.297 352.774Z" fill="#573D85"></path><path opacity="0.9375" d="M411.101 352.774C411.101 353.211 404.537 353.562 396.445 353.562C388.353 353.562 381.789 353.207 381.789 352.774C381.789 352.338 388.349 351.986 396.445 351.986C404.541 351.986 411.101 352.338 411.101 352.774Z" fill="#573D85"></path><path d="M396.445 353.014C398.911 353.014 400.909 352.907 400.909 352.774C400.909 352.642 398.911 352.534 396.445 352.534C393.98 352.534 391.981 352.642 391.981 352.774C391.981 352.907 393.98 353.014 396.445 353.014Z" fill="#573D85"></path></g><g opacity="0.2"><path d="M456.954 145.183C459.054 142.551 458.621 138.702 455.987 136.602C453.356 134.502 449.508 134.935 447.408 137.569C445.308 140.201 445.74 144.05 448.375 146.15C451.006 148.25 454.854 147.817 456.954 145.183ZM448.879 138.743C450.329 136.923 452.991 136.622 454.81 138.073C456.629 139.524 456.93 142.186 455.48 144.006C454.029 145.825 451.368 146.126 449.548 144.675C447.729 143.224 447.428 140.563 448.879 138.743Z" fill="white"></path></g><path opacity="0.2" d="M403.452 129.551L398.231 130.139C397.714 130.196 397.247 129.824 397.189 129.307C397.132 128.79 397.504 128.323 398.021 128.265L403.243 127.677L402.654 122.455C402.597 121.937 402.969 121.471 403.486 121.413C404.003 121.356 404.47 121.728 404.528 122.245L405.116 127.467L410.337 126.879C410.855 126.821 411.321 127.193 411.379 127.711C411.436 128.228 411.064 128.695 410.547 128.752L405.326 129.341L405.914 134.563C405.972 135.08 405.6 135.547 405.082 135.605C404.565 135.662 404.098 135.29 404.041 134.773L403.452 129.551Z" fill="white"></path><path opacity="0.2" d="M442.341 245.885L438.835 241.976C438.486 241.59 438.52 240.991 438.906 240.646C439.291 240.298 439.89 240.332 440.235 240.717L443.741 244.627L447.651 241.12C448.036 240.772 448.635 240.805 448.98 241.191C449.328 241.576 449.294 242.175 448.909 242.52L444.999 246.027L448.506 249.937C448.854 250.323 448.821 250.921 448.435 251.266C448.046 251.615 447.451 251.581 447.106 251.195L443.599 247.286L439.69 250.793C439.305 251.141 438.706 251.107 438.361 250.722C438.013 250.336 438.047 249.738 438.432 249.393L442.341 245.885Z" fill="white"></path><path opacity="0.2" d="M357.911 250.363L352.69 250.951C352.173 251.009 351.706 250.637 351.648 250.119C351.591 249.602 351.963 249.135 352.48 249.078L357.702 248.489L357.113 243.267C357.056 242.75 357.428 242.283 357.945 242.226C358.462 242.168 358.929 242.54 358.987 243.058L359.575 248.28L364.796 247.691C365.314 247.634 365.78 248.006 365.838 248.523C365.895 249.041 365.523 249.507 365.006 249.565L359.785 250.153L360.373 255.375C360.431 255.893 360.059 256.36 359.541 256.417C359.024 256.475 358.557 256.102 358.5 255.585L357.911 250.363Z" fill="white"></path><g opacity="0.2"><path d="M358.405 144.263C360.505 141.631 360.072 137.783 357.438 135.682C354.807 133.582 350.959 134.015 348.859 136.65C346.759 139.281 347.192 143.13 349.826 145.23C352.457 147.33 356.309 146.894 358.405 144.263ZM350.333 137.823C351.784 136.004 354.445 135.703 356.265 137.153C358.084 138.604 358.385 141.266 356.934 143.086C355.483 144.905 352.822 145.206 351.003 143.755C349.183 142.304 348.882 139.643 350.333 137.823Z" fill="white"></path></g><g opacity="0.2"><path d="M404.207 272.141C406.307 269.509 405.874 265.66 403.24 263.56C400.609 261.46 396.761 261.893 394.661 264.527C392.561 267.162 392.993 271.008 395.628 273.108C398.262 275.205 402.11 274.772 404.207 272.141ZM396.135 265.701C397.586 263.881 400.247 263.58 402.066 265.035C403.886 266.486 404.187 269.147 402.736 270.967C401.285 272.787 398.624 273.088 396.805 271.637C394.982 270.182 394.684 267.521 396.135 265.701Z" fill="white"></path></g><mask id="mask0_242_22168" style="mask-type:luminance" maskUnits="userSpaceOnUse" x="297" y="92" width="206" height="212"><path d="M496.066 132.097L502.839 250.58C503.877 268.721 490.645 284.546 472.61 286.738L336.018 303.327C314.832 305.901 296.429 288.778 297.471 267.457L304.41 125.383C305.343 106.274 321.667 91.5889 340.766 92.678L463.646 99.679C481.119 100.673 495.068 114.618 496.066 132.097Z" fill="white"></path></mask><g mask="url(#mask0_242_22168)"><g opacity="0.15"><path opacity="0.0323" d="M106.38 109.815L98.0817 254.939C96.8102 277.16 113.018 296.546 135.111 299.228L302.418 319.548C328.369 322.7 350.908 301.724 349.633 275.611L341.135 101.59C339.992 78.1855 319.996 60.1959 296.605 61.5285L146.094 70.1056C124.689 71.3265 107.604 88.4097 106.38 109.815Z" fill="black"></path><path opacity="0.0645" d="M105.606 109.044L97.3072 254.168C96.0357 276.388 112.244 295.775 134.336 298.457L301.644 318.777C327.595 321.929 350.134 300.953 348.859 274.839L340.361 100.818C339.218 77.414 319.222 59.4244 295.831 60.757L145.32 69.3341C123.914 70.5517 106.83 87.6348 105.606 109.044Z" fill="black"></path><path opacity="0.0968" d="M104.835 108.269L96.5367 253.393C95.2652 275.614 111.474 295 133.566 297.682L300.874 318.002C326.824 321.154 349.363 300.178 348.088 274.065L339.587 100.044C338.444 76.6396 318.448 58.65 295.057 59.9826L144.546 68.5597C123.144 69.7806 106.059 86.8638 104.835 108.269Z" fill="black"></path><path opacity="0.129" d="M104.061 107.498L95.7623 252.622C94.4908 274.843 110.699 294.229 132.791 296.911L300.099 317.231C326.05 320.383 348.589 299.407 347.314 273.294L338.816 99.2725C337.673 75.8681 317.677 57.8785 294.286 59.2111L143.775 67.7882C122.373 69.0091 105.285 86.0923 104.061 107.498Z" fill="black"></path><path opacity="0.1613" d="M103.289 106.727L94.9908 251.851C93.7193 274.072 109.928 293.458 132.02 296.14L299.328 316.46C325.279 319.612 347.817 298.636 346.542 272.523L338.044 98.502C336.901 75.0976 316.906 57.108 293.515 58.4406L143.004 67.0177C121.598 68.2353 104.514 85.3184 103.289 106.727Z" fill="black"></path><path opacity="0.1935" d="M102.519 105.952L94.2203 251.076C92.9488 273.297 109.157 292.683 131.25 295.365L298.557 315.685C324.508 318.837 347.047 297.861 345.772 271.748L337.274 97.7266C336.131 74.3222 316.135 56.3326 292.744 57.6652L142.233 66.2423C120.827 67.4633 103.743 84.5464 102.519 105.952Z" fill="black"></path><path opacity="0.2258" d="M101.745 105.181L93.4459 250.305C92.1744 272.526 108.383 291.913 130.475 294.595L297.783 314.914C323.734 318.067 346.272 297.091 344.997 270.977L336.499 96.9561C335.356 73.5517 315.361 55.5621 291.97 56.8947L141.459 65.4718C120.053 66.6894 102.969 83.7725 101.745 105.181Z" fill="black"></path><path opacity="0.2581" d="M100.973 104.407L92.6744 249.534C91.4029 271.755 107.611 291.141 129.704 293.823L297.011 314.143C322.962 317.295 345.501 296.319 344.226 270.206L335.728 96.1849C334.585 72.7805 314.589 54.7909 291.198 56.1235L140.687 64.7006C119.281 65.9181 102.197 83.0013 100.973 104.407Z" fill="black"></path><path opacity="0.2903" d="M100.199 103.636L91.9 248.76C90.6285 270.98 106.837 290.367 128.929 293.049L296.237 313.368C322.188 316.521 344.726 295.545 343.452 269.431L334.953 95.4102C333.81 72.0058 313.815 54.0162 290.424 55.3488L139.913 63.9259C118.51 65.1468 101.423 82.23 100.199 103.636Z" fill="black"></path><path opacity="0.3226" d="M99.4281 102.864L91.1295 247.988C89.858 270.209 106.066 289.595 128.159 292.277L295.466 312.597C321.417 315.749 343.956 294.773 342.681 268.66L334.183 94.6387C333.04 71.2343 313.044 53.2448 289.653 54.5773L139.142 63.1544C117.736 64.372 100.652 81.4552 99.4281 102.864Z" fill="black"></path><path opacity="0.3548" d="M98.6566 102.09L90.358 247.217C89.0865 269.438 105.295 288.824 127.387 291.506L294.695 311.826C320.646 314.978 343.184 294.002 341.91 267.889L333.411 93.868C332.268 70.4636 312.273 52.474 288.882 53.8066L138.371 62.3837C116.965 63.6012 99.8808 80.6844 98.6566 102.09Z" fill="black"></path><path opacity="0.3871" d="M97.8822 101.319L89.5836 246.443C88.3121 268.664 104.52 288.05 126.613 290.732L293.92 311.052C319.871 314.204 342.41 293.228 341.135 267.115L332.637 93.0935C331.494 69.6892 311.498 51.6996 288.107 53.0322L137.596 61.6092C116.191 62.8268 99.1064 79.91 97.8822 101.319Z" fill="black"></path><path opacity="0.4194" d="M97.1117 100.545L88.8131 245.669C87.5416 267.889 103.75 287.276 125.842 289.958L293.15 310.278C319.101 313.43 341.64 292.454 340.365 266.34L331.867 92.3194C330.724 68.915 310.728 50.9254 287.337 52.258L136.823 60.8351C115.42 62.056 98.3359 79.1392 97.1117 100.545Z" fill="black"></path><path opacity="0.4516" d="M96.3373 99.7732L88.0387 244.897C86.7672 267.118 102.975 286.504 125.068 289.186L292.376 309.506C318.326 312.658 340.865 291.682 339.59 265.569L331.092 91.5479C329.949 68.1435 309.953 50.1539 286.562 51.4865L136.052 60.0636C114.649 61.2845 97.5614 78.3677 96.3373 99.7732Z" fill="black"></path><path opacity="0.4839" d="M95.5658 99.0022L87.2672 244.126C85.9957 266.347 102.204 285.733 124.296 288.415L291.604 308.735C317.555 311.887 340.094 290.911 338.819 264.798L330.321 90.7735C329.178 67.3691 309.182 49.3795 285.791 50.7121L135.28 59.2892C113.874 60.5101 96.79 77.5933 95.5658 99.0022Z" fill="black"></path><path opacity="0.5161" d="M94.7953 98.2273L86.4967 243.351C85.2252 265.572 101.433 284.958 123.526 287.64L290.834 307.96C316.784 311.112 339.323 290.136 338.048 264.023L329.55 90.002C328.407 66.5976 308.411 48.608 285.02 49.9406L134.51 58.5177C113.104 59.7386 96.0195 76.8218 94.7953 98.2273Z" fill="black"></path><path opacity="0.5484" d="M94.0209 97.4568L85.7223 242.581C84.4508 264.801 100.659 284.188 122.751 286.87L290.059 307.19C316.01 310.342 338.549 289.366 337.274 263.252L328.776 89.2315C327.633 65.8271 307.637 47.8375 284.246 49.1701L133.735 57.7472C112.329 58.9648 95.245 76.0479 94.0209 97.4568Z" fill="black"></path><path opacity="0.5806" d="M93.2494 96.6824L84.9508 241.806C83.6793 264.027 99.8876 283.413 121.98 286.096L289.288 306.415C315.238 309.568 337.777 288.592 336.502 262.478L328.004 88.4571C326.861 65.0527 306.865 47.0631 283.475 48.3957L132.964 56.9728C111.558 58.1937 94.4735 75.2769 93.2494 96.6824Z" fill="black"></path><path opacity="0.6129" d="M92.475 95.9109L84.1764 241.035C82.9049 263.256 99.1132 282.642 121.206 285.324L288.513 305.644C314.464 308.796 337.003 287.82 335.728 261.707L327.23 87.6856C326.087 64.2812 306.091 46.2916 282.7 47.6242L132.189 56.2013C110.787 57.4222 93.6991 74.5054 92.475 95.9109Z" fill="black"></path><path opacity="0.6452" d="M91.7045 95.1394L83.4059 240.264C82.1344 262.484 98.3427 281.871 120.435 284.553L287.743 304.872C313.694 308.025 336.232 287.049 334.957 260.935L326.459 86.9141C325.316 63.5097 305.321 45.5201 281.93 46.8527L131.419 55.4298C110.013 56.6474 92.9286 73.7305 91.7045 95.1394Z" fill="black"></path><path opacity="0.6774" d="M90.933 94.3653L82.6344 239.489C81.3629 261.71 97.5712 281.096 119.664 283.778L286.971 304.098C312.922 307.25 335.461 286.274 334.186 260.161L325.688 86.1399C324.545 62.7356 304.549 44.746 281.158 46.0785L130.644 54.6556C109.241 55.8766 92.1571 72.9597 90.933 94.3653Z" fill="black"></path><path opacity="0.7097" d="M90.1586 93.594L81.86 238.718C80.5885 260.939 96.7968 280.325 118.889 283.007L286.197 303.327C312.148 306.479 334.686 285.503 333.412 259.39L324.913 85.3653C323.77 61.9609 303.775 43.9713 280.384 45.3039L129.873 53.881C108.467 55.1019 91.3827 72.1851 90.1586 93.594Z" fill="black"></path><path opacity="0.7419" d="M89.3881 92.8191L81.0895 237.943C79.818 260.164 96.0263 279.55 118.119 282.232L285.426 302.552C311.377 305.704 333.916 284.728 332.641 258.615L324.143 84.5938C323 61.1894 303.004 43.1998 279.613 44.5324L129.102 53.1095C107.696 54.3304 90.6122 71.4136 89.3881 92.8191Z" fill="black"></path><path opacity="0.7742" d="M88.6136 92.0486L80.3151 237.173C79.0435 259.393 95.2518 278.78 117.344 281.462L284.652 301.782C310.603 304.934 333.141 283.958 331.867 257.844L323.368 83.8233C322.225 60.4189 302.23 42.4293 278.839 43.7619L128.328 52.339C106.922 53.5566 89.8378 70.6431 88.6136 92.0486Z" fill="black"></path><path opacity="0.8065" d="M87.8422 91.2774L79.5436 236.401C78.2721 258.622 94.4804 278.008 116.573 280.69L283.88 301.01C309.831 304.163 332.37 283.187 331.095 257.073L322.597 83.052C321.454 59.6477 301.458 41.6581 278.067 42.9906L127.556 51.5644C106.15 52.7853 89.0663 69.8685 87.8422 91.2774Z" fill="black"></path><path opacity="0.8387" d="M87.0717 90.5027L78.7731 235.627C77.5016 257.847 93.7099 277.234 115.802 279.916L283.11 300.236C309.061 303.388 331.599 282.412 330.325 256.298L321.826 82.2774C320.683 58.873 300.688 40.8834 277.297 42.216L126.786 50.7931C105.38 52.014 88.2958 69.0972 87.0717 90.5027Z" fill="black"></path><path opacity="0.871" d="M86.2972 89.7312L77.9986 234.855C76.7271 257.076 92.9354 276.462 115.028 279.144L282.335 299.464C308.286 302.616 330.825 281.64 329.55 255.527L321.052 81.5059C319.909 58.1015 299.913 40.1119 276.522 41.4445L126.011 50.0216C104.606 51.2392 87.5214 68.3223 86.2972 89.7312Z" fill="black"></path><path opacity="0.9032" d="M85.5258 88.9568L77.2272 234.081C75.9557 256.301 92.164 275.688 114.256 278.37L281.564 298.69C307.515 301.842 330.054 280.866 328.779 254.752L320.277 80.7315C319.134 57.3271 299.138 39.3375 275.747 40.6701L125.237 49.2472C103.834 50.4681 86.7499 67.5513 85.5258 88.9568Z" fill="black"></path><path opacity="0.9355" d="M84.7513 88.1863L76.4527 233.31C75.1812 255.531 91.3895 274.917 113.482 277.599L280.79 297.919C306.74 301.071 329.279 280.095 328.004 253.982L319.506 79.961C318.363 56.5566 298.367 38.567 274.976 39.8996L124.466 48.4767C103.06 49.6942 85.9755 66.7808 84.7513 88.1863Z" fill="black"></path><path opacity="0.9677" d="M83.9808 87.4148L75.6822 232.539C74.4107 254.76 90.619 274.146 112.711 276.828L280.019 297.148C305.97 300.3 328.509 279.324 327.234 253.21L318.736 79.1895C317.593 55.7851 297.597 37.7955 274.206 39.1281L123.695 47.7052C102.289 48.9228 85.205 66.0059 83.9808 87.4148Z" fill="black"></path><path d="M83.2093 86.6404L74.9108 231.764C73.6393 253.985 89.8475 273.371 111.94 276.054L279.248 296.373C305.198 299.526 327.737 278.55 326.462 252.436L317.964 78.4151C316.821 55.0107 296.825 37.0211 273.434 38.3537L122.924 46.9308C101.518 48.1517 84.4335 65.2349 83.2093 86.6404Z" fill="black"></path></g></g><path d="M222.334 280.501L192.346 320.37C188.87 324.99 193.668 331.257 199.035 329.109L279.244 296.373L222.334 280.501Z" fill="url(#paint2_linear_242_22168)"></path><path d="M83.2093 86.6404L74.9108 231.764C73.6393 253.985 89.8475 273.371 111.94 276.054L279.248 296.373C305.198 299.526 327.737 278.55 326.462 252.436L317.964 78.4151C316.821 55.0107 296.825 37.0211 273.434 38.3537L122.924 46.9308C101.518 48.1517 84.4335 65.2349 83.2093 86.6404Z" fill="url(#paint3_linear_242_22168)"></path><g opacity="0.05"><path opacity="0.0625" d="M205.23 367.327C311.68 367.327 397.974 362.678 397.974 356.944C397.974 351.209 311.68 346.561 205.23 346.561C98.78 346.561 12.4854 351.209 12.4854 356.944C12.4854 362.678 98.78 367.327 205.23 367.327Z" fill="#573D85"></path><path opacity="0.125" d="M205.229 366.654C304.784 366.654 385.488 362.306 385.488 356.944C385.488 351.581 304.784 347.234 205.229 347.234C105.675 347.234 24.9697 351.581 24.9697 356.944C24.9697 362.306 105.675 366.654 205.229 366.654Z" fill="#573D85"></path><path opacity="0.1875" d="M205.229 365.982C297.889 365.982 373.004 361.936 373.004 356.945C373.004 351.953 297.889 347.907 205.229 347.907C112.57 347.907 37.4551 351.953 37.4551 356.945C37.4551 361.936 112.57 365.982 205.229 365.982Z" fill="#573D85"></path><path opacity="0.25" d="M205.23 365.308C290.994 365.308 360.519 361.563 360.519 356.944C360.519 352.325 290.994 348.58 205.23 348.58C119.466 348.58 49.9404 352.325 49.9404 356.944C49.9404 361.563 119.466 365.308 205.23 365.308Z" fill="#573D85"></path><path opacity="0.3125" d="M205.23 364.639C284.098 364.639 348.034 361.194 348.034 356.945C348.034 352.695 284.098 349.25 205.23 349.25C126.361 349.25 62.4258 352.695 62.4258 356.945C62.4258 361.194 126.361 364.639 205.23 364.639Z" fill="#573D85"></path><path opacity="0.375" d="M74.9102 356.944C74.9102 360.82 133.257 363.966 205.229 363.966C277.201 363.966 335.548 360.824 335.548 356.944C335.548 353.068 277.201 349.923 205.229 349.923C133.257 349.923 74.9102 353.068 74.9102 356.944Z" fill="#573D85"></path><path opacity="0.4375" d="M205.229 363.292C270.307 363.292 323.063 360.45 323.063 356.944C323.063 353.438 270.307 350.596 205.229 350.596C140.152 350.596 87.3955 353.438 87.3955 356.944C87.3955 360.45 140.152 363.292 205.229 363.292Z" fill="#573D85"></path><path opacity="0.5" d="M205.23 362.62C263.412 362.62 310.579 360.079 310.579 356.944C310.579 353.81 263.412 351.269 205.23 351.269C147.047 351.269 99.8809 353.81 99.8809 356.944C99.8809 360.079 147.047 362.62 205.23 362.62Z" fill="#573D85"></path><path opacity="0.5625" d="M205.23 361.946C256.517 361.946 298.094 359.706 298.094 356.944C298.094 354.181 256.517 351.942 205.23 351.942C153.943 351.942 112.366 354.181 112.366 356.944C112.366 359.706 153.943 361.946 205.23 361.946Z" fill="#573D85"></path><path opacity="0.625" d="M124.851 356.945C124.851 359.336 160.838 361.274 205.229 361.274C249.62 361.274 285.608 359.336 285.608 356.945C285.608 354.553 249.62 352.615 205.229 352.615C160.838 352.615 124.851 354.553 124.851 356.945Z" fill="#573D85"></path><path opacity="0.6875" d="M137.336 356.944C137.336 358.964 167.734 360.601 205.23 360.601C242.725 360.601 273.123 358.964 273.123 356.944C273.123 354.925 242.725 353.288 205.23 353.288C167.734 353.288 137.336 354.925 137.336 356.944Z" fill="#573D85"></path><path opacity="0.75" d="M149.821 356.944C149.821 358.591 174.629 359.93 205.23 359.93C235.83 359.93 260.638 358.594 260.638 356.944C260.638 355.297 235.83 353.957 205.23 353.957C174.629 353.957 149.821 355.297 149.821 356.944Z" fill="#573D85"></path><path opacity="0.8125" d="M162.306 356.944C162.306 358.223 181.524 359.258 205.229 359.258C228.935 359.258 248.152 358.223 248.152 356.944C248.152 355.666 228.935 354.631 205.229 354.631C181.524 354.631 162.306 355.666 162.306 356.944Z" fill="#573D85"></path><path opacity="0.875" d="M174.791 356.944C174.791 357.85 188.419 358.584 205.229 358.584C222.04 358.584 235.668 357.85 235.668 356.944C235.668 356.038 222.04 355.304 205.229 355.304C188.419 355.304 174.791 356.038 174.791 356.944Z" fill="#573D85"></path><path opacity="0.9375" d="M187.276 356.944C187.276 357.478 195.315 357.911 205.23 357.911C215.145 357.911 223.183 357.478 223.183 356.944C223.183 356.41 215.145 355.977 205.23 355.977C195.315 355.977 187.276 356.41 187.276 356.944Z" fill="#573D85"></path><path d="M199.762 356.944C199.762 357.106 202.21 357.238 205.23 357.238C208.25 357.238 210.698 357.106 210.698 356.944C210.698 356.782 208.25 356.65 205.23 356.65C202.21 356.65 199.762 356.782 199.762 356.944Z" fill="#573D85"></path></g><g opacity="0.2"><path d="M259.373 240.155C261.944 243.378 261.413 248.093 258.19 250.667C254.967 253.237 250.253 252.706 247.68 249.483C245.11 246.26 245.641 241.545 248.863 238.971C252.089 236.398 256.803 236.929 259.373 240.155ZM249.485 248.042C251.264 250.271 254.524 250.64 256.753 248.861C258.981 247.082 259.35 243.821 257.571 241.593C255.792 239.364 252.532 238.995 250.304 240.774C248.075 242.553 247.707 245.814 249.485 248.042Z" fill="white"></path></g><path opacity="0.2" d="M197.986 251.019L191.592 250.298C190.959 250.227 190.388 250.684 190.317 251.316C190.246 251.949 190.702 252.52 191.335 252.591L197.729 253.312L197.009 259.707C196.938 260.34 197.395 260.911 198.027 260.982C198.659 261.053 199.231 260.597 199.302 259.964L200.022 253.569L206.417 254.289C207.049 254.36 207.621 253.904 207.692 253.271C207.763 252.639 207.306 252.067 206.674 251.996L200.279 251.276L201 244.88C201.071 244.248 200.614 243.676 199.982 243.605C199.349 243.534 198.778 243.991 198.707 244.623L197.986 251.019Z" fill="white"></path><path opacity="0.2" d="M249.759 80.6266L245.461 85.4157C245.035 85.8892 245.076 86.6198 245.549 87.0459C246.023 87.4721 246.753 87.4315 247.179 86.958L251.477 82.1689L256.266 86.4676C256.739 86.8937 257.47 86.8531 257.896 86.3796C258.322 85.9061 258.281 85.1756 257.808 84.7494L253.019 80.4507L257.317 75.6616C257.743 75.1881 257.703 74.4576 257.229 74.0314C256.756 73.6053 256.026 73.6459 255.599 74.1194L251.301 78.9085L246.513 74.6098C246.039 74.1836 245.309 74.2242 244.883 74.6977C244.457 75.1712 244.497 75.9018 244.971 76.3279L249.759 80.6266Z" fill="white"></path><path opacity="0.2" d="M150.487 79.2813L144.093 78.5609C143.46 78.4899 142.889 78.9464 142.818 79.5789C142.747 80.2114 143.203 80.7829 143.836 80.854L150.23 81.5744L149.51 87.97C149.439 88.6024 149.896 89.174 150.528 89.245C151.16 89.3161 151.732 88.8595 151.803 88.227L152.523 81.8314L158.918 82.5518C159.55 82.6228 160.122 82.1662 160.193 81.5338C160.264 80.9013 159.807 80.3297 159.175 80.2587L152.78 79.5383L153.501 73.1427C153.572 72.5102 153.115 71.9387 152.483 71.8676C151.85 71.7966 151.279 72.2532 151.208 72.8857L150.487 79.2813Z" fill="white"></path><g opacity="0.2"><path d="M155.235 237.139C157.805 240.362 157.274 245.077 154.051 247.651C150.828 250.221 146.114 249.69 143.541 246.467C140.971 243.244 141.502 238.529 144.725 235.955C147.951 233.385 152.665 233.916 155.235 237.139ZM145.347 245.03C147.126 247.258 150.385 247.627 152.614 245.848C154.843 244.069 155.211 240.809 153.432 238.58C151.654 236.351 148.394 235.982 146.165 237.761C143.937 239.54 143.568 242.801 145.347 245.03Z" fill="white"></path></g><g opacity="0.2"><path d="M207.195 65.0355C209.765 68.2587 209.234 72.9734 206.011 75.5472C202.788 78.1176 198.074 77.5866 195.501 74.3635C192.931 71.1403 193.462 66.4256 196.685 63.8518C199.911 61.2814 204.625 61.8123 207.195 65.0355ZM197.307 72.926C199.086 75.1549 202.345 75.5235 204.574 73.7445C206.802 71.9655 207.171 68.7051 205.392 66.4763C203.614 64.2475 200.354 63.8788 198.125 65.6578C195.897 67.4335 195.528 70.6938 197.307 72.926Z" fill="white"></path></g><path d="M371.665 202.061C377.989 202.061 383.116 196.932 383.116 190.606C383.116 184.28 377.989 179.151 371.665 179.151C365.341 179.151 360.215 184.28 360.215 190.606C360.215 196.932 365.341 202.061 371.665 202.061Z" fill="#FCFFFE"></path><path d="M414.906 209.094C425.113 209.094 433.388 200.816 433.388 190.606C433.388 180.395 425.113 172.117 414.906 172.117C404.699 172.117 396.425 180.395 396.425 190.606C396.425 200.816 404.699 209.094 414.906 209.094Z" fill="#FCFFFE"></path><path d="M458.149 202.061C464.473 202.061 469.599 196.932 469.599 190.606C469.599 184.28 464.473 179.151 458.149 179.151C451.825 179.151 446.698 184.28 446.698 190.606C446.698 196.932 451.825 202.061 458.149 202.061Z" fill="#FCFFFE"></path><path d="M172.376 155.927C171.494 155.125 170.209 154.721 168.556 154.721H154.599V145.318H171.503C173.217 145.318 174.545 144.901 175.447 144.081C176.377 143.233 176.847 142.113 176.847 140.748C176.847 139.404 176.377 138.295 175.447 137.448C174.545 136.626 173.219 136.208 171.503 136.208H150.021C148.587 136.208 147.373 136.431 146.409 136.87C145.353 137.353 144.566 138.132 144.073 139.185C143.618 140.148 143.39 141.376 143.39 142.834V177.406C143.39 179.527 143.912 181.169 144.941 182.283C145.993 183.422 147.361 184 149.01 184C150.636 184 151.993 183.428 153.045 182.303C154.076 181.199 154.599 179.552 154.599 177.406V163.648H168.556C170.182 163.648 171.458 163.251 172.349 162.467C173.276 161.649 173.746 160.549 173.746 159.2C173.746 157.856 173.285 156.756 172.376 155.927Z" fill="#FDFFFE"></path><path d="M204.987 144.248C204.42 142.8 203.942 141.615 203.565 140.722C203.167 139.781 202.67 138.887 202.089 138.067C201.456 137.176 200.62 136.439 199.6 135.876C198.558 135.302 197.271 135.013 195.774 135.013C194.298 135.013 193.021 135.302 191.98 135.876C190.956 136.439 190.117 137.192 189.485 138.108C188.904 138.951 188.353 140.013 187.849 141.264C187.371 142.449 186.963 143.466 186.626 144.307L174.708 173.735C174.205 174.947 173.853 175.872 173.631 176.568C173.387 177.326 173.263 178.076 173.263 178.799C173.263 180.166 173.837 181.39 174.966 182.439C176.082 183.473 177.394 183.997 178.863 183.997C180.613 183.997 181.921 183.455 182.75 182.386C183.435 181.504 184.21 179.913 185.126 177.527L187.088 172.401H204.533L206.492 177.411L206.504 177.438C206.803 178.145 207.164 178.97 207.579 179.888C208.034 180.898 208.46 181.643 208.882 182.16C209.339 182.723 209.911 183.175 210.583 183.501C211.263 183.831 212.069 184 212.975 184C214.538 184 215.893 183.453 217.001 182.377C218.109 181.299 218.669 180.075 218.669 178.74C218.669 177.577 218.175 175.856 217.16 173.488L204.987 144.248ZM201.184 163.399H190.354L195.72 148.849L201.184 163.399Z" fill="#FDFFFE"></path><path d="M267.764 180.634C267.171 180.053 266.061 179.325 264.372 178.411C263.21 177.782 262.102 177.132 261.072 176.471C264.596 172.167 266.383 166.474 266.383 159.53C266.383 154.631 265.473 150.293 263.677 146.636C261.858 142.931 259.139 140.033 255.597 138.02C252.078 136.024 247.829 135.013 242.967 135.013C239.387 135.013 236.134 135.587 233.301 136.717C230.445 137.856 227.985 139.525 225.991 141.68C224.001 143.827 222.465 146.46 221.421 149.504C220.389 152.518 219.864 155.869 219.864 159.469C219.864 163 220.366 166.316 221.355 169.326C222.356 172.37 223.869 175.039 225.854 177.258C227.851 179.49 230.349 181.221 233.28 182.404C236.186 183.577 239.507 184.172 243.152 184.172C247.373 184.172 251.038 183.456 254.058 182.045C255.479 183.058 256.812 183.966 258.029 184.748C259.415 185.64 260.646 186.333 261.687 186.807C262.836 187.33 263.814 187.584 264.676 187.584C265.845 187.584 266.85 187.136 267.664 186.248C268.455 185.386 268.856 184.478 268.856 183.545C268.854 182.326 268.487 181.347 267.764 180.634ZM242.842 165.886C241.953 165.886 241.139 166.22 240.426 166.879C239.697 167.551 239.311 168.391 239.311 169.303C239.311 170.367 239.74 171.24 240.549 171.833C241.139 172.265 242.165 172.844 243.688 173.603C244.276 173.896 244.823 174.189 245.329 174.481C244.57 174.646 243.82 174.728 243.09 174.728C239.669 174.728 236.916 173.464 234.673 170.859C232.421 168.247 231.281 164.413 231.281 159.464C231.281 157.019 231.594 154.794 232.207 152.85C232.811 150.936 233.638 149.353 234.664 148.143C235.678 146.947 236.904 146.025 238.308 145.398C239.722 144.769 241.29 144.449 242.967 144.449C245.331 144.449 247.446 145.026 249.256 146.165C251.054 147.297 252.463 149.001 253.443 151.233C254.451 153.527 254.961 156.297 254.961 159.464C254.961 161.994 254.669 164.24 254.095 166.138C253.632 167.663 252.953 169.036 252.073 170.225C245.805 165.886 243.59 165.886 242.842 165.886Z" fill="#FDFFFE"></path><path d="M383.04 51.3131C386.593 51.3131 389.485 48.4181 389.485 44.8607C389.485 41.3032 386.593 38.4082 383.04 38.4082C379.486 38.4082 376.595 41.3032 376.595 44.8607C376.595 48.4181 379.486 51.3131 383.04 51.3131ZM383.04 40.3981C385.497 40.3981 387.498 42.4005 387.498 44.8607C387.498 47.3208 385.497 49.3233 383.04 49.3233C380.583 49.3233 378.582 47.3208 378.582 44.8607C378.582 42.398 380.583 40.3981 383.04 40.3981Z" fill="url(#paint4_linear_242_22168)"></path><path d="M123.796 303.957L119.874 300.03C119.485 299.641 119.485 299.011 119.874 298.622C120.263 298.233 120.892 298.233 121.28 298.622L125.203 302.549L129.125 298.622C129.514 298.233 130.143 298.233 130.532 298.622C130.92 299.011 130.92 299.641 130.532 300.03L126.609 303.957L130.532 307.884C130.92 308.273 130.92 308.903 130.532 309.292C130.143 309.681 129.514 309.681 129.125 309.292L125.203 305.365L121.28 309.292C120.892 309.681 120.263 309.681 119.874 309.292C119.485 308.903 119.485 308.273 119.874 307.884L123.796 303.957Z" fill="url(#paint5_linear_242_22168)"></path><path d="M220.176 21.7051L216.254 17.7785C215.865 17.3891 215.865 16.7595 216.254 16.3702C216.643 15.9808 217.271 15.9808 217.66 16.3702L221.583 20.2968L225.505 16.3702C225.894 15.9808 226.522 15.9808 226.911 16.3702C227.3 16.7595 227.3 17.3891 226.911 17.7785L222.989 21.7051L226.911 25.6317C227.3 26.021 227.3 26.6506 226.911 27.04C226.522 27.4293 225.894 27.4293 225.505 27.04L221.583 23.1134L217.66 27.04C217.271 27.4293 216.643 27.4293 216.254 27.04C215.865 26.6506 215.865 26.021 216.254 25.6317L220.176 21.7051Z" fill="url(#paint6_linear_242_22168)"></path><path d="M42.1415 162.964C45.6949 162.964 48.5866 160.068 48.5866 156.511C48.5866 152.954 45.6949 150.059 42.1415 150.059C38.588 150.059 35.6963 152.954 35.6963 156.511C35.6938 160.068 38.5855 162.964 42.1415 162.964ZM42.1415 152.046C44.5988 152.046 46.599 154.048 46.599 156.509C46.599 158.969 44.5988 160.971 42.1415 160.971C39.6841 160.971 37.6839 158.969 37.6839 156.509C37.6839 154.048 39.6841 152.046 42.1415 152.046Z" fill="url(#paint7_linear_242_22168)"></path><path d="M525.378 276.268L521.456 272.341C521.067 271.952 521.067 271.322 521.456 270.933C521.845 270.543 522.474 270.543 522.862 270.933L526.785 274.859L530.707 270.933C531.096 270.543 531.725 270.543 532.114 270.933C532.502 271.322 532.502 271.952 532.114 272.341L528.191 276.268L532.114 280.194C532.502 280.584 532.502 281.213 532.114 281.602C531.725 281.992 531.096 281.992 530.707 281.602L526.785 277.676L522.862 281.602C522.474 281.992 521.845 281.992 521.456 281.602C521.067 281.213 521.067 280.584 521.456 280.194L525.378 276.268Z" fill="url(#paint8_linear_242_22168)"></path></g><defs><linearGradient id="paint0_linear_242_22168" x1="329.105" y1="310.384" x2="405.918" y2="310.384" gradientUnits="userSpaceOnUse"><stop stop-color="#6B70FF"></stop><stop offset="1" stop-color="#0BB0EE"></stop></linearGradient><linearGradient id="paint1_linear_242_22168" x1="412.104" y1="96.631" x2="394.541" y2="289.8" gradientUnits="userSpaceOnUse"><stop stop-color="#00D1FF"></stop><stop offset="1" stop-color="#288CE7"></stop></linearGradient><linearGradient id="paint2_linear_242_22168" x1="233.724" y1="329.523" x2="236.75" y2="289.583" gradientUnits="userSpaceOnUse"><stop stop-color="#00BAFF"></stop><stop offset="1" stop-color="#006AFF"></stop></linearGradient><linearGradient id="paint3_linear_242_22168" x1="186.051" y1="43.2005" x2="207.564" y2="279.808" gradientUnits="userSpaceOnUse"><stop stop-color="#00C2FF"></stop><stop offset="1" stop-color="#0085FF"></stop></linearGradient><linearGradient id="paint4_linear_242_22168" x1="389.486" y1="44.8594" x2="376.594" y2="44.8594" gradientUnits="userSpaceOnUse"><stop stop-color="#008BFF"></stop><stop offset="1" stop-color="#0048FF"></stop></linearGradient><linearGradient id="paint5_linear_242_22168" x1="130.82" y1="303.957" x2="119.582" y2="303.957" gradientUnits="userSpaceOnUse"><stop stop-color="#008BFF"></stop><stop offset="1" stop-color="#0048FF"></stop></linearGradient><linearGradient id="paint6_linear_242_22168" x1="227.202" y1="21.7041" x2="215.964" y2="21.7041" gradientUnits="userSpaceOnUse"><stop stop-color="#008BFF"></stop><stop offset="1" stop-color="#0048FF"></stop></linearGradient><linearGradient id="paint7_linear_242_22168" x1="48.5868" y1="156.509" x2="35.6947" y2="156.509" gradientUnits="userSpaceOnUse"><stop stop-color="#008BFF"></stop><stop offset="1" stop-color="#0048FF"></stop></linearGradient><linearGradient id="paint8_linear_242_22168" x1="532.402" y1="276.268" x2="521.164" y2="276.268" gradientUnits="userSpaceOnUse"><stop stop-color="#008BFF"></stop><stop offset="1" stop-color="#0048FF"></stop></linearGradient><clipPath id="clip0_242_22168"><rect width="564" height="368" fill="white"></rect></clipPath></defs></svg>