<?xml version="1.0" encoding="UTF-8"?>
<svg xmlns="http://www.w3.org/2000/svg" width="34" height="34" viewBox="0 0 34 34" fill="none">
  <path d="M17.0003 19.8334V31.1667H5.66699C5.66699 28.161 6.86103 25.2782 8.98645 23.1528C11.1119 21.0275 13.9945 19.8334 17.0003 19.8334ZM17.0003 18.4167C12.3041 18.4167 8.50033 14.613 8.50033 9.91675C8.50033 5.2205 12.3041 1.41675 17.0003 1.41675C21.6966 1.41675 25.5003 5.2205 25.5003 9.91675C25.5003 14.613 21.6966 18.4167 17.0003 18.4167ZM29.7503 24.0834H31.167V31.1667H19.8337V24.0834H21.2503V22.6667C21.2503 21.5396 21.6981 20.4586 22.4951 19.6616C23.2922 18.8646 24.3732 18.4167 25.5003 18.4167C26.6274 18.4167 27.7085 18.8646 28.5055 19.6616C29.3025 20.4586 29.7503 21.5396 29.7503 22.6667V24.0834ZM26.917 24.0834V22.6667C26.917 22.291 26.7677 21.9306 26.5021 21.665C26.2364 21.3994 25.876 21.2501 25.5003 21.2501C25.1246 21.2501 24.7642 21.3994 24.4986 21.665C24.233 21.9306 24.0837 22.291 24.0837 22.6667V24.0834H26.917Z" fill="white"></path>
</svg>
