<svg xmlns="http://www.w3.org/2000/svg" width="36" height="36" viewBox="0 0 36 36" fill="none"><path d="M27.2326 1.14521C25.2391 1.31396 23.5055 2.66058 22.8845 4.60346C21.8034 4.68446 18.0976 4.90158 16.5586 6.33708L3.27127 18.3802C2.00565 19.5277 1.90664 21.5257 3.05414 22.7902L13.0959 33.8512C13.7113 34.5307 14.4763 34.8727 15.5124 34.8727H28.136C29.8381 34.8727 31.241 33.4676 31.241 31.7655V21.5178C33.1085 19.6537 35.0491 9.65583 32.6405 6.76121C32.6821 6.41808 32.7001 6.07046 32.6686 5.71496C32.4571 3.29171 30.5244 1.35896 28.1 1.14633C27.8075 1.12158 27.5173 1.12046 27.2326 1.14521ZM27.4723 3.38396C27.6106 3.37496 27.7546 3.37721 27.9031 3.39071C29.0495 3.49083 29.9765 4.26821 30.305 5.32683C29.9529 5.21771 27.9999 4.65296 25.3573 4.60571C25.7578 4.00271 26.4991 3.44358 27.4723 3.38396ZM23.8723 6.83546C26.3394 6.79946 28.865 7.08858 30.0159 7.62408C29.6795 8.15171 29.1361 8.61296 28.5196 8.78396C28.3149 8.69958 28.0966 8.65683 27.8761 8.65683C26.9446 8.65683 26.1886 9.41283 26.1886 10.3443C26.1886 11.2758 26.9446 12.0318 27.8761 12.0318C28.6254 12.0318 29.2756 11.556 29.4871 10.836C30.2094 10.5513 30.8563 10.1092 31.3614 9.55683C31.9948 14.031 30.2848 19.4906 29.2723 20.3546L26.1943 23.1468L14.9994 10.7831L18.0706 7.99646C18.9943 7.23258 21.4051 6.87146 23.8723 6.83546ZM8.91765 18.8111C9.22815 18.8178 9.5229 18.9528 9.73102 19.1846L12.9609 22.7643C13.3771 23.2233 13.3434 23.9332 12.8866 24.3506C12.4243 24.7691 11.7099 24.732 11.2936 24.2673L8.06152 20.6876C7.64864 20.2263 7.6869 19.5187 8.14477 19.1036C8.35627 18.9112 8.63302 18.8066 8.91765 18.8111ZM28.9899 23.6486V31.7655C28.9899 32.2593 28.6299 32.6227 28.1349 32.6227H19.0888L28.9899 23.6486Z" fill="white"></path></svg>