<svg width="34" height="34" viewBox="0 0 34 34" fill="none" xmlns="http://www.w3.org/2000/svg">
<path d="M3.71875 24.9688H11.1562V19.6562H3.71875V24.9688ZM10.0938 23.9062H9.03125V22.8438H10.0938V23.9062ZM4.78125 20.7188H10.0938V21.7812H4.78125V20.7188ZM4.78125 22.8438H7.96875V23.9062H4.78125V22.8438Z" fill="white"/>
<path d="M14.1881 10.7807L15.4062 11.9988L16.6244 10.7807C16.724 10.6811 16.8591 10.6251 17 10.6251C17.1409 10.6251 17.276 10.6811 17.3756 10.7807L18.0625 11.4676V2.65625H12.75V11.4676L13.4369 10.7807C13.5365 10.6811 13.6716 10.6251 13.8125 10.6251C13.9534 10.6251 14.0885 10.6811 14.1881 10.7807Z" fill="white"/>
<path d="M26.5625 18.5938C27.4744 18.5928 28.3774 18.7734 29.2188 19.125V2.65625H19.125V12.75C19.125 12.8551 19.0939 12.9578 19.0356 13.0451C18.9772 13.1325 18.8943 13.2006 18.7972 13.2409C18.7328 13.2677 18.6636 13.2815 18.5938 13.2812C18.4529 13.2812 18.3178 13.2252 18.2182 13.1256L17 11.9074L15.7818 13.1256C15.6822 13.2252 15.5471 13.2811 15.4062 13.2811C15.2654 13.2811 15.1303 13.2252 15.0307 13.1256L13.8125 11.9074L12.5943 13.1256C12.52 13.1999 12.4254 13.2504 12.3224 13.2709C12.2193 13.2914 12.1125 13.2809 12.0155 13.2407C11.9184 13.2005 11.8354 13.1324 11.7771 13.0451C11.7187 12.9577 11.6875 12.8551 11.6875 12.75V2.65625H1.59375V27.0938H19.8491C19.6038 26.0796 19.5924 25.0229 19.8156 24.0036C20.0389 22.9843 20.4909 22.0292 21.1377 21.2103C21.7844 20.3915 22.6088 19.7304 23.5487 19.2771C24.4885 18.8238 25.5191 18.5901 26.5625 18.5938ZM12.2188 25.5C12.2188 25.6409 12.1628 25.776 12.0632 25.8757C11.9635 25.9753 11.8284 26.0312 11.6875 26.0312H3.1875C3.0466 26.0312 2.91148 25.9753 2.81185 25.8757C2.71222 25.776 2.65625 25.6409 2.65625 25.5V19.125C2.65625 18.9841 2.71222 18.849 2.81185 18.7493C2.91148 18.6497 3.0466 18.5938 3.1875 18.5938H11.6875C11.8284 18.5938 11.9635 18.6497 12.0632 18.7493C12.1628 18.849 12.2188 18.9841 12.2188 19.125V25.5Z" fill="white"/>
<path d="M26.5625 19.6562C25.4067 19.6562 24.2769 19.999 23.3159 20.6411C22.3549 21.2832 21.6059 22.1959 21.1636 23.2637C20.7213 24.3315 20.6056 25.5065 20.831 26.6401C21.0565 27.7736 21.6131 28.8149 22.4303 29.6322C23.2476 30.4494 24.2889 31.006 25.4224 31.2315C26.556 31.4569 27.731 31.3412 28.7988 30.8989C29.8666 30.4566 30.7793 29.7076 31.4214 28.7466C32.0635 27.7856 32.4063 26.6558 32.4063 25.5C32.4044 23.9507 31.7882 22.4654 30.6926 21.3699C29.5971 20.2743 28.1118 19.6581 26.5625 19.6562ZM29.9513 24.7674L26.4068 28.3119C26.2878 28.431 26.1464 28.5255 25.9908 28.5899C25.8352 28.6544 25.6684 28.6875 25.5 28.6875C25.3316 28.6875 25.1648 28.6544 25.0092 28.5899C24.8536 28.5255 24.7122 28.431 24.5932 28.3119L23.1737 26.8924C23.069 26.7878 22.986 26.6635 22.9294 26.5268C22.8727 26.3901 22.8436 26.2435 22.8436 26.0955C22.8436 25.9475 22.8727 25.801 22.9294 25.6643C22.986 25.5275 23.069 25.4033 23.1737 25.2987C23.2783 25.194 23.4025 25.111 23.5393 25.0544C23.676 24.9977 23.8225 24.9686 23.9705 24.9686C24.1185 24.9686 24.2651 24.9977 24.4018 25.0544C24.5385 25.111 24.6628 25.194 24.7674 25.2987L25.5 26.0312L28.3576 23.1737C28.5689 22.9623 28.8556 22.8436 29.1545 22.8436C29.4534 22.8436 29.74 22.9623 29.9513 23.1737C30.1627 23.385 30.2814 23.6716 30.2814 23.9705C30.2814 24.2694 30.1627 24.5561 29.9513 24.7674Z" fill="white"/>
</svg>
