<svg width="34" height="34" viewBox="0 0 34 34" fill="none" xmlns="http://www.w3.org/2000/svg">
<path d="M24.4375 5.3125H21.0992C20.6241 3.48445 18.9749 2.125 17 2.125C15.0251 2.125 13.3759 3.48445 12.9008 5.3125H9.5625C8.97522 5.3125 8.5 5.78772 8.5 6.375V13.8125H10.625V7.4375H12.9008C13.3759 9.26555 15.0251 10.625 17 10.625C18.9749 10.625 20.6241 9.26555 21.0992 7.4375H23.375V13.8125H25.5V6.375C25.5 5.78772 25.0248 5.3125 24.4375 5.3125Z" fill="white"/>
<path d="M6.375 14.875V19.125H2.125L6.375 14.875Z" fill="white"/>
<path d="M2.125 20.1875V30.8125C2.125 31.3993 2.60067 31.875 3.1875 31.875H13.8125C14.3993 31.875 14.875 31.3993 14.875 30.8125V15.9375C14.875 15.3507 14.3993 14.875 13.8125 14.875H7.4375V19.125C7.4375 19.7118 6.96176 20.1875 6.375 20.1875H2.125ZM4.25 29.2188C4.25 28.9251 4.48761 28.6875 4.78125 28.6875H12.2188C12.5124 28.6875 12.75 28.9251 12.75 29.2188C12.75 29.5124 12.5124 29.75 12.2188 29.75H4.78125C4.48761 29.75 4.25 29.5124 4.25 29.2188ZM4.25 27.0938C4.25 26.8001 4.48761 26.5625 4.78125 26.5625H12.2188C12.5124 26.5625 12.75 26.8001 12.75 27.0938C12.75 27.3874 12.5124 27.625 12.2188 27.625H4.78125C4.48761 27.625 4.25 27.3874 4.25 27.0938ZM4.25 24.9688C4.25 24.6751 4.48761 24.4375 4.78125 24.4375H12.2188C12.5124 24.4375 12.75 24.6751 12.75 24.9688C12.75 25.2624 12.5124 25.5 12.2188 25.5H4.78125C4.48761 25.5 4.25 25.2624 4.25 24.9688ZM4.25 22.8438C4.25 22.5501 4.48761 22.3125 4.78125 22.3125H12.2188C12.5124 22.3125 12.75 22.5501 12.75 22.8438C12.75 23.1374 12.5124 23.375 12.2188 23.375H4.78125C4.48761 23.375 4.25 23.1374 4.25 22.8438Z" fill="white"/>
<path d="M27.625 14.875V19.125H31.875L27.625 14.875Z" fill="white"/>
<path d="M27.625 20.1875C27.0382 20.1875 26.5625 19.7118 26.5625 19.125V14.875H20.1875C19.6007 14.875 19.125 15.3507 19.125 15.9375V30.8125C19.125 31.3993 19.6007 31.875 20.1875 31.875H30.8125C31.3993 31.875 31.875 31.3993 31.875 30.8125V20.1875H27.625ZM29.2188 29.75H21.7812C21.4876 29.75 21.25 29.5124 21.25 29.2188C21.25 28.9251 21.4876 28.6875 21.7812 28.6875H29.2188C29.5124 28.6875 29.75 28.9251 29.75 29.2188C29.75 29.5124 29.5124 29.75 29.2188 29.75ZM29.2188 27.625H21.7812C21.4876 27.625 21.25 27.3874 21.25 27.0938C21.25 26.8001 21.4876 26.5625 21.7812 26.5625H29.2188C29.5124 26.5625 29.75 26.8001 29.75 27.0938C29.75 27.3874 29.5124 27.625 29.2188 27.625ZM29.2188 25.5H21.7812C21.4876 25.5 21.25 25.2624 21.25 24.9688C21.25 24.6751 21.4876 24.4375 21.7812 24.4375H29.2188C29.5124 24.4375 29.75 24.6751 29.75 24.9688C29.75 25.2624 29.5124 25.5 29.2188 25.5ZM29.2188 23.375H21.7812C21.4876 23.375 21.25 23.1374 21.25 22.8438C21.25 22.5501 21.4876 22.3125 21.7812 22.3125H29.2188C29.5124 22.3125 29.75 22.5501 29.75 22.8438C29.75 23.1374 29.5124 23.375 29.2188 23.375Z" fill="white"/>
</svg>
