<svg width="873" height="138" viewBox="0 0 873 138" fill="none" xmlns="http://www.w3.org/2000/svg">
<path d="M444 138L448.33 130.5L439.67 130.5L444 138ZM443.25 58L443.25 60L444.75 60L444.75 58L443.25 58ZM443.25 64L443.25 68L444.75 68L444.75 64L443.25 64ZM443.25 72L443.25 76L444.75 76L444.75 72L443.25 72ZM443.25 80L443.25 84L444.75 84L444.75 80L443.25 80ZM443.25 88L443.25 92L444.75 92L444.75 88L443.25 88ZM443.25 96L443.25 100L444.75 100L444.75 96L443.25 96ZM443.25 104L443.25 108L444.75 108L444.75 104L443.25 104ZM443.25 112L443.25 116L444.75 116L444.75 112L443.25 112ZM443.25 120L443.25 124L444.75 124L444.75 120L443.25 120ZM443.25 128L443.25 132L444.75 132L444.75 128L443.25 128Z" fill="#C3CCE5"/>
<path d="M5 137L9.33013 129.5H0.669873L5 137ZM5.75 131.188V127.312H4.25V131.188H5.75ZM5.75 123.438V119.562H4.25V123.438H5.75ZM5.75 115.688V111.812H4.25V115.688H5.75ZM5.75 107.938V104.062H4.25V107.938H5.75ZM5.75 100.188V96.3125H4.25V100.188H5.75ZM5.75 92.4375V88.5625H4.25V92.4375H5.75ZM5.75 84.6875V80.8125H4.25V84.6875H5.75ZM5.75 76.9375V75H4.25V76.9375H5.75ZM5.75 75C5.75 74.3813 5.81064 73.7775 5.92608 73.1939L4.4546 72.9028C4.3203 73.5817 4.25 74.283 4.25 75H5.75ZM7.30757 69.8611C7.98311 68.852 8.85204 67.9831 9.86108 67.3076L9.02661 66.0611C7.85463 66.8457 6.84574 67.8546 6.06112 69.0266L7.30757 69.8611ZM13.1939 65.9261C13.7775 65.8106 14.3813 65.75 15 65.75V64.25C14.283 64.25 13.5817 64.3203 12.9028 64.4546L13.1939 65.9261ZM15 65.75H17.0144V64.25H15V65.75ZM21.0433 65.75H25.0721V64.25H21.0433V65.75ZM29.101 65.75H33.1298V64.25H29.101V65.75ZM37.1587 65.75H41.1875V64.25H37.1587V65.75ZM45.2164 65.75H49.2452V64.25H45.2164V65.75ZM53.274 65.75H57.3029V64.25H53.274V65.75ZM61.3317 65.75H65.3606V64.25H61.3317V65.75ZM69.3894 65.75H73.4183V64.25H69.3894V65.75ZM77.4471 65.75H81.476V64.25H77.4471V65.75ZM85.5048 65.75H89.5337V64.25H85.5048V65.75ZM93.5625 65.75H97.5914V64.25H93.5625V65.75ZM101.62 65.75H105.649V64.25H101.62V65.75ZM109.678 65.75H113.707V64.25H109.678V65.75ZM117.736 65.75H121.764V64.25H117.736V65.75ZM125.793 65.75H129.822V64.25H125.793V65.75ZM133.851 65.75H137.88V64.25H133.851V65.75ZM141.909 65.75H145.938V64.25H141.909V65.75ZM149.966 65.75H153.995V64.25H149.966V65.75ZM158.024 65.75H162.053V64.25H158.024V65.75ZM166.082 65.75H170.111V64.25H166.082V65.75ZM174.139 65.75H178.168V64.25H174.139V65.75ZM182.197 65.75H186.226V64.25H182.197V65.75ZM190.255 65.75H194.284V64.25H190.255V65.75ZM198.312 65.75H202.341V64.25H198.312V65.75ZM206.37 65.75H210.399V64.25H206.37V65.75ZM214.428 65.75H218.457V64.25H214.428V65.75ZM222.485 65.75H226.514V64.25H222.485V65.75ZM230.543 65.75H234.572V64.25H230.543V65.75ZM238.601 65.75H242.63V64.25H238.601V65.75ZM246.659 65.75H250.687V64.25H246.659V65.75ZM254.716 65.75H258.745V64.25H254.716V65.75ZM262.774 65.75H266.803V64.25H262.774V65.75ZM270.832 65.75H274.86V64.25H270.832V65.75ZM278.889 65.75H282.918V64.25H278.889V65.75ZM286.947 65.75H290.976V64.25H286.947V65.75ZM295.005 65.75H299.033V64.25H295.005V65.75ZM303.062 65.75H307.091V64.25H303.062V65.75ZM311.12 65.75H315.149V64.25H311.12V65.75ZM319.178 65.75H323.206V64.25H319.178V65.75ZM327.235 65.75H331.264V64.25H327.235V65.75ZM335.293 65.75H339.322V64.25H335.293V65.75ZM343.351 65.75H347.379V64.25H343.351V65.75ZM351.408 65.75H355.437V64.25H351.408V65.75ZM359.466 65.75H363.495V64.25H359.466V65.75ZM367.524 65.75H371.553V64.25H367.524V65.75ZM375.581 65.75H379.61V64.25H375.581V65.75ZM383.639 65.75H387.668V64.25H383.639V65.75ZM391.697 65.75H395.726V64.25H391.697V65.75ZM399.754 65.75H403.783V64.25H399.754V65.75ZM407.812 65.75H411.841V64.25H407.812V65.75ZM415.87 65.75H419.899V64.25H415.87V65.75ZM423.927 65.75H427.956V64.25H423.927V65.75ZM431.985 65.75H434V64.25H431.985V65.75ZM434 65.75C434.717 65.75 435.418 65.6797 436.097 65.5454L435.806 64.0739C435.223 64.1894 434.619 64.25 434 64.25V65.75ZM439.973 63.9389C441.145 63.1543 442.154 62.1454 442.939 60.9734L441.692 60.1389C441.017 61.148 440.148 62.0169 439.139 62.6924L439.973 63.9389ZM444.545 57.0972C444.68 56.4183 444.75 55.717 444.75 55H443.25C443.25 55.6187 443.189 56.2225 443.074 56.8061L444.545 57.0972ZM444.75 55V53.0357H443.25V55H444.75ZM444.75 49.1071V45.1786H443.25V49.1071H444.75ZM444.75 41.25V37.3214H443.25V41.25H444.75ZM444.75 33.3929V29.4643H443.25V33.3929H444.75ZM444.75 25.5357V21.6071H443.25V25.5357H444.75ZM444.75 17.6786V13.75H443.25V17.6786H444.75ZM444.75 9.82143V5.89286H443.25V9.82143H444.75ZM444.75 1.96429V0H443.25V1.96429H444.75Z" fill="#C3CCE5"/>
<path d="M868 137L863.67 129.5H872.33L868 137ZM867.25 131.188V127.312H868.75V131.188H867.25ZM867.25 123.438V119.562H868.75V123.438H867.25ZM867.25 115.688V111.812H868.75V115.688H867.25ZM867.25 107.938V104.062H868.75V107.938H867.25ZM867.25 100.188V96.3125H868.75V100.188H867.25ZM867.25 92.4375V88.5625H868.75V92.4375H867.25ZM867.25 84.6875V80.8125H868.75V84.6875H867.25ZM867.25 76.9375V75H868.75V76.9375H867.25ZM867.25 75C867.25 74.3813 867.189 73.7775 867.074 73.1939L868.545 72.9028C868.68 73.5817 868.75 74.283 868.75 75H867.25ZM865.692 69.8611C865.017 68.852 864.148 67.9831 863.139 67.3076L863.973 66.0611C865.145 66.8457 866.154 67.8546 866.939 69.0266L865.692 69.8611ZM859.806 65.9261C859.223 65.8106 858.619 65.75 858 65.75V64.25C858.717 64.25 859.418 64.3203 860.097 64.4546L859.806 65.9261ZM858 65.75H856.02V64.25H858V65.75ZM852.059 65.75H848.098V64.25H852.059V65.75ZM844.137 65.75H840.176V64.25H844.137V65.75ZM836.216 65.75H832.255V64.25H836.216V65.75ZM828.294 65.75H824.333V64.25H828.294V65.75ZM820.373 65.75H816.412V64.25H820.373V65.75ZM812.451 65.75H808.49V64.25H812.451V65.75ZM804.529 65.75H800.569V64.25H804.529V65.75ZM796.608 65.75H792.647V64.25H796.608V65.75ZM788.686 65.75H784.725V64.25H788.686V65.75ZM780.765 65.75H776.804V64.25H780.765V65.75ZM772.843 65.75H768.882V64.25H772.843V65.75ZM764.922 65.75H760.961V64.25H764.922V65.75ZM757 65.75H753.039V64.25H757V65.75ZM749.078 65.75H745.118V64.25H749.078V65.75ZM741.157 65.75H737.196V64.25H741.157V65.75ZM733.235 65.75H729.275V64.25H733.235V65.75ZM725.314 65.75H721.353V64.25H725.314V65.75ZM717.392 65.75H713.431V64.25H717.392V65.75ZM709.471 65.75H705.51V64.25H709.471V65.75ZM701.549 65.75H697.588V64.25H701.549V65.75ZM693.627 65.75H689.667V64.25H693.627V65.75ZM685.706 65.75H681.745V64.25H685.706V65.75ZM677.784 65.75H673.824V64.25H677.784V65.75ZM669.863 65.75H665.902V64.25H669.863V65.75ZM661.941 65.75H657.98V64.25H661.941V65.75ZM654.02 65.75H650.059V64.25H654.02V65.75ZM646.098 65.75H642.137V64.25H646.098V65.75ZM638.176 65.75H634.216V64.25H638.176V65.75ZM630.255 65.75H626.294V64.25H630.255V65.75ZM622.333 65.75H618.373V64.25H622.333V65.75ZM614.412 65.75H610.451V64.25H614.412V65.75ZM606.49 65.75H602.529V64.25H606.49V65.75ZM598.569 65.75H594.608V64.25H598.569V65.75ZM590.647 65.75H586.686V64.25H590.647V65.75ZM582.725 65.75H578.765V64.25H582.725V65.75ZM574.804 65.75H570.843V64.25H574.804V65.75ZM566.882 65.75H562.922V64.25H566.882V65.75ZM558.961 65.75H555V64.25H558.961V65.75ZM551.039 65.75H547.078V64.25H551.039V65.75ZM543.118 65.75H539.157V64.25H543.118V65.75ZM535.196 65.75H531.235V64.25H535.196V65.75ZM527.274 65.75H523.314V64.25H527.274V65.75ZM519.353 65.75H515.392V64.25H519.353V65.75ZM511.431 65.75H507.471V64.25H511.431V65.75ZM503.51 65.75H499.549V64.25H503.51V65.75ZM495.588 65.75H491.627V64.25H495.588V65.75ZM487.667 65.75H483.706V64.25H487.667V65.75ZM479.745 65.75H475.784V64.25H479.745V65.75ZM471.823 65.75H467.863V64.25H471.823V65.75ZM463.902 65.75H459.941V64.25H463.902V65.75ZM455.98 65.75H454V64.25H455.98V65.75ZM454 65.75C453.283 65.75 452.582 65.6797 451.903 65.5454L452.194 64.0739C452.777 64.1894 453.381 64.25 454 64.25V65.75ZM448.027 63.9389C446.855 63.1543 445.846 62.1454 445.061 60.9734L446.308 60.1389C446.983 61.148 447.852 62.0169 448.861 62.6924L448.027 63.9389ZM443.455 57.0972C443.32 56.4183 443.25 55.717 443.25 55H444.75C444.75 55.6187 444.811 56.2225 444.926 56.8061L443.455 57.0972ZM443.25 55V53.0357H444.75V55H443.25ZM443.25 49.1071V45.1786H444.75V49.1071H443.25ZM443.25 41.25V37.3214H444.75V41.25H443.25ZM443.25 33.3929V29.4643H444.75V33.3929H443.25ZM443.25 25.5357V21.6071H444.75V25.5357H443.25ZM443.25 17.6786V13.75H444.75V17.6786H443.25ZM443.25 9.82143V5.89286H444.75V9.82143H443.25ZM443.25 1.96429V0H444.75V1.96429H443.25Z" fill="#C3CCE5"/>
</svg>
