<svg width="32" height="32" viewBox="0 0 32 32" fill="none" xmlns="http://www.w3.org/2000/svg">
<path d="M29.5 10.2524V29.5C29.5 30.3271 28.8272 31 28 31H26V12.4747C26.57 12.3586 27 11.8538 27 11.25C27 10.5605 26.4395 10 25.75 10H6.25C5.56079 10 5 10.5605 5 11.25C5 11.8538 5.43015 12.3586 6 12.4747V31H4C3.17285 31 2.5 30.3271 2.5 29.5V10.2524C2.5 9.73438 2.76172 9.25976 3.19995 8.98388L15.1997 1.41357C15.686 1.10693 16.314 1.10693 16.8003 1.41357L28.8003 8.98388C29.2388 9.26025 29.5 9.73486 29.5 10.2524ZM16.3047 22.0232L17.5 22.9426L17.5034 22.9446L17.5005 18H14.5V22.9426L15.6953 22.0232C15.875 21.8849 16.125 21.8849 16.3047 22.0232ZM13.5 18H11C10.1729 18 9.5 18.6728 9.5 19.5V21H13.5V18ZM21 18H18.5V21H22.5V19.5C22.5 18.6728 21.8272 18 21 18ZM18.5 22H22.5V29.5C22.5 30.3271 21.8272 31 21 31H11C10.1729 31 9.5 30.3271 9.5 29.5V22H13.5V22.8805C13.5 23.224 13.6444 23.5667 13.9269 23.7622C14.2922 24.0152 14.7642 24.0011 15.1094 23.7351L16 23.0503L16.8481 23.7028C17.1213 23.913 17.4835 24.003 17.8104 23.8936C18.2311 23.753 18.5 23.3729 18.5 22.9426V22ZM15 29C15 28.7239 14.7761 28.5 14.5 28.5H11.5C11.2239 28.5 11 28.7239 11 29C11 29.2761 11.2239 29.5 11.5 29.5H14.5C14.7761 29.5 15 29.2761 15 29ZM15 27.5C15 27.2239 14.7761 27 14.5 27H11.5C11.2239 27 11 27.2239 11 27.5C11 27.7761 11.2239 28 11.5 28H14.5C14.7761 28 15 27.7761 15 27.5ZM6.5 14H25.5V12.5H6.5V14ZM6.5 16H15.5V17C15.5 17.2764 15.7239 17.5 16 17.5C16.2761 17.5 16.5 17.2764 16.5 17V16H25.5V14.5H6.5V16Z" fill="white"/>
</svg>
