<svg width="34" height="34" viewBox="0 0 34 34" fill="none" xmlns="http://www.w3.org/2000/svg">
<path d="M17 1C12.7629 1 9.31596 4.39507 9.31596 8.56849C9.31596 12.7419 12.7629 16.137 17 16.137C21.2371 16.137 24.684 12.7419 24.684 8.56849C24.684 4.39507 21.2371 1 17 1ZM21.5047 7.78788L17.4118 11.8192C17.0773 12.1489 16.632 12.3309 16.1578 12.3309C15.7379 12.3309 15.3304 12.1833 15.0103 11.9155L12.601 9.89975C11.856 9.27605 11.7646 8.17165 12.3975 7.43766C12.9997 6.70963 14.1829 6.61493 14.8974 7.23753L16.0603 8.2106L18.9972 5.31784C19.6662 4.65832 20.8351 4.65775 21.5047 5.31784C22.1929 5.96786 22.1927 7.1376 21.5047 7.78788ZM14.4743 24.3258L16.4089 21.15V34L3.94112 29.1948C3.25624 28.9307 2.81408 28.2922 2.81408 27.5682V21.3944L12.3077 25.0535C12.5204 25.1354 12.7398 25.1746 12.9562 25.1746C13.5632 25.1746 14.145 24.8662 14.4743 24.3258ZM1.3765 19.59C1.2117 19.5264 1.08961 19.4007 1.03247 19.2356C0.975324 19.0707 0.994085 18.8976 1.085 18.7483L3.6551 14.5297L16.1333 19.339L13.4607 23.7265C13.3118 23.971 13.0085 24.0725 12.7383 23.9693L1.3765 19.59ZM28.5584 13.968L17 18.4228L5.44161 13.968L9.4423 13.1114C11.0019 15.6191 13.8015 17.3014 17 17.3014C20.1984 17.3014 22.998 15.619 24.5577 13.1113L28.5584 13.968ZM32.9675 19.2356C32.9104 19.4007 32.788 19.5264 32.6232 19.59L21.2617 23.9693C20.9921 24.0727 20.6879 23.971 20.5393 23.7265L17.8667 19.339L30.3449 14.5297L32.915 18.748C33.0059 18.8976 33.0247 19.0707 32.9675 19.2356ZM21.6923 25.0535L31.1859 21.3943V27.5682C31.1859 28.2922 30.7438 28.9307 30.0592 29.1948L17.5911 34V21.15L19.5257 24.3258C19.855 24.8662 20.4365 25.1746 21.0438 25.1746C21.2602 25.1746 21.4799 25.1354 21.6923 25.0535Z" fill="white"/>
</svg>
