<svg width="40" height="40" viewBox="0 0 40 40" fill="none" xmlns="http://www.w3.org/2000/svg">
<path d="M30 19.25V11.6667C30 9.36667 28.1333 7.5 25.8333 7.5H9.16667C6.86667 7.5 5 9.36667 5 11.6667V28.3333C5 30.6333 6.86667 32.5 9.16667 32.5H25.8333C27.1833 32.5 28.3833 31.8333 29.15 30.8333H29.1667C32.3833 30.8333 35 28.2167 35 25C35 22.0667 32.8167 19.6667 30 19.25ZM18.0667 13.6167C17.7167 13.4333 17.3 13.4333 16.95 13.6167L15.3833 14.4C14.8333 14.6833 14.1833 14.2667 14.1833 13.65V9.16667H20.85V13.65C20.85 14.2667 20.2 14.6667 19.65 14.4L18.0833 13.6167H18.0667ZM30 29.0833V26.6667C30 26.2 29.6333 25.8333 29.1667 25.8333H26.6667V28.3333C26.6667 29.0833 25.7667 29.45 25.25 28.9167L20.25 23.9167C19.9167 23.5833 19.9167 23.0667 20.25 22.7333L25.25 17.7333C25.7833 17.2167 26.6667 17.5833 26.6667 18.3167V20.8167H29.2667C31.35 20.8167 33.3333 22.6 33.3333 24.9833C33.3333 27 31.9 28.6833 30 29.0667V29.0833Z" fill="white"/>
</svg>
