<svg xmlns="http://www.w3.org/2000/svg" width="34" height="34" viewBox="0 0 34 34" fill="none"><path d="M31.2853 22.8736C31.2853 23.6014 30.3641 24.2463 28.9722 24.6065C28.2115 24.8126 27.3031 24.9284 26.3309 24.9284C25.364 24.9284 24.4556 24.8126 23.6959 24.6065C22.304 24.2453 21.3828 23.6078 21.3828 22.8736C21.3828 21.7399 23.5992 20.8176 26.3319 20.8176C29.0689 20.8176 31.2853 21.7388 31.2853 22.8736Z" fill="white"></path><path d="M29.3782 29.6268C28.4602 29.868 27.4073 29.9955 26.3299 29.9955C25.2568 29.9955 24.206 29.868 23.2901 29.6279C22.4836 29.4154 21.8621 29.1423 21.3818 28.8438V29.8191C21.3818 30.9528 23.5982 31.8751 26.331 31.8751C29.069 31.8751 31.2865 30.9539 31.2865 29.8191V28.8438C30.8051 29.1423 30.1846 29.4143 29.3782 29.6268Z" fill="white"></path><path d="M19.7877 29.8191V26.3457V25.9749V22.5144L19.8143 22.5314C20.0852 20.5679 22.6862 19.2249 26.3295 19.2249C27.7777 19.2249 29.0612 19.4363 30.1004 19.8146V4.18625L26.6897 2.125L23.2685 4.18625L19.8366 2.125L16.426 4.18625L13.0047 2.125L9.58348 4.18625L6.14098 2.125L2.71973 4.18625V29.07C2.71973 30.6213 3.97348 31.875 5.52473 31.875H20.7971C20.1511 31.3044 19.7877 30.6064 19.7877 29.8191ZM21.2657 18.9869H8.42004C7.89198 18.9869 7.46379 18.5587 7.46379 18.0306C7.46379 17.5026 7.89198 17.0744 8.42004 17.0744H21.2657C21.7937 17.0744 22.2219 17.5026 22.2219 18.0306C22.2219 18.5587 21.7937 18.9869 21.2657 18.9869ZM8.41898 11.3124H24.4011C24.9292 11.3124 25.3574 11.7406 25.3574 12.2687C25.3574 12.7968 24.9292 13.2249 24.4011 13.2249H8.41898C7.89091 13.2249 7.46273 12.7968 7.46273 12.2687C7.46273 11.7406 7.89091 11.3124 8.41898 11.3124ZM15.6121 24.7509H8.41898C7.89091 24.7509 7.46273 24.3228 7.46273 23.7947C7.46273 23.2666 7.89091 22.8384 8.41898 22.8384H15.6132C16.1412 22.8384 16.5694 23.2666 16.5694 23.7947C16.5694 24.3228 16.1402 24.7509 15.6121 24.7509Z" fill="white"></path><path d="M29.3729 26.1491C28.4761 26.3913 27.419 26.522 26.331 26.522C25.2461 26.522 24.1911 26.3913 23.2795 26.1448C22.4783 25.9377 21.861 25.6688 21.3818 25.3735V26.3457C21.3818 27.0798 22.303 27.7184 23.6949 28.085C24.4556 28.2847 25.3641 28.4005 26.3299 28.4005C27.3031 28.4005 28.2116 28.2847 28.9713 28.085C30.3631 27.7173 31.2843 27.0735 31.2843 26.3457V25.3713C30.8041 25.6688 30.1815 25.9398 29.3729 26.1491Z" fill="white"></path></svg>