<svg width="34" height="34" viewBox="0 0 34 34" fill="none" xmlns="http://www.w3.org/2000/svg">
<path d="M7.4375 17H10.6261V20.1875H7.4375V17Z" fill="white"/>
<path d="M13.8125 17H12.75V20.1875C12.75 20.7511 12.5261 21.2916 12.1276 21.6901C11.7291 22.0886 11.1886 22.3125 10.625 22.3125H7.4375C6.87391 22.3125 6.33341 22.0886 5.9349 21.6901C5.53638 21.2916 5.3125 20.7511 5.3125 20.1875V17H4.25C3.68641 17 3.14591 17.2239 2.7474 17.6224C2.34888 18.0209 2.125 18.5614 2.125 19.125V28.6875C2.125 29.2511 2.34888 29.7916 2.7474 30.1901C3.14591 30.5886 3.68641 30.8125 4.25 30.8125H13.8125C14.3761 30.8125 14.9166 30.5886 15.3151 30.1901C15.7136 29.7916 15.9375 29.2511 15.9375 28.6875V19.125C15.9375 18.5614 15.7136 18.0209 15.3151 17.6224C14.9166 17.2239 14.3761 17 13.8125 17Z" fill="white"/>
<path d="M23.375 17H26.5636V20.1875H23.375V17Z" fill="white"/>
<path d="M29.75 17H28.6875V20.1875C28.6875 20.7511 28.4636 21.2916 28.0651 21.6901C27.6666 22.0886 27.1261 22.3125 26.5625 22.3125H23.375C22.8114 22.3125 22.2709 22.0886 21.8724 21.6901C21.4739 21.2916 21.25 20.7511 21.25 20.1875V17H20.1875C19.6239 17 19.0834 17.2239 18.6849 17.6224C18.2864 18.0209 18.0625 18.5614 18.0625 19.125V28.6875C18.0625 29.2511 18.2864 29.7916 18.6849 30.1901C19.0834 30.5886 19.6239 30.8125 20.1875 30.8125H29.75C30.3136 30.8125 30.8541 30.5886 31.2526 30.1901C31.6511 29.7916 31.875 29.2511 31.875 28.6875V19.125C31.875 18.5614 31.6511 18.0209 31.2526 17.6224C30.8541 17.2239 30.3136 17 29.75 17Z" fill="white"/>
<path d="M15.9375 2.125H18.0636V5.3125H15.9375V2.125Z" fill="white"/>
<path d="M11.6875 14.875H22.3125C22.8761 14.875 23.4166 14.6511 23.8151 14.2526C24.2136 13.8541 24.4375 13.3136 24.4375 12.75V4.25C24.4375 3.68641 24.2136 3.14591 23.8151 2.7474C23.4166 2.34888 22.8761 2.125 22.3125 2.125H20.1875V5.3125C20.1875 5.87609 19.9636 6.41659 19.5651 6.8151C19.1666 7.21362 18.6261 7.4375 18.0625 7.4375H15.9375C15.3739 7.4375 14.8334 7.21362 14.4349 6.8151C14.0364 6.41659 13.8125 5.87609 13.8125 5.3125V2.125H11.6875C11.1239 2.125 10.5834 2.34888 10.1849 2.7474C9.78638 3.14591 9.5625 3.68641 9.5625 4.25V12.75C9.5625 13.3136 9.78638 13.8541 10.1849 14.2526C10.5834 14.6511 11.1239 14.875 11.6875 14.875Z" fill="white"/>
</svg>
